<svg width="39" height="39" viewBox="0 0 39 39" fill="none" xmlns="http://www.w3.org/2000/svg">
<path d="M0 16.25C0 7.27536 7.27537 0 16.25 0H22.75C31.7246 0 39 7.27537 39 16.25V22.75C39 31.7246 31.7246 39 22.75 39H16.25C7.27536 39 0 31.7246 0 22.75V16.25Z" fill="white" fill-opacity="0.2"/>
<path d="M17.8749 21.6612V22.9824C17.8719 23.2607 17.7973 23.5337 17.6585 23.775C17.5196 24.0163 17.3211 24.2178 17.0819 24.3604C16.5742 24.7364 16.1612 25.2257 15.8758 25.7893C15.5903 26.3529 15.4402 26.9753 15.4374 27.6071" stroke="white" stroke-width="1.6" stroke-linecap="round" stroke-linejoin="round"/>
<path d="M21.125 21.6612V22.9824C21.128 23.2607 21.2026 23.5337 21.3414 23.775C21.4803 24.0163 21.6788 24.2178 21.918 24.3604C22.4257 24.7364 22.8387 25.2257 23.1241 25.7893C23.4096 26.3529 23.5597 26.9753 23.5625 27.6071" stroke="white" stroke-width="1.6" stroke-linecap="round" stroke-linejoin="round"/>
<path d="M24.375 17.0624H25.5937C26.1325 17.0624 26.6491 16.8484 27.03 16.4675C27.411 16.0865 27.625 15.5699 27.625 15.0312C27.625 14.4924 27.411 13.9758 27.03 13.5949C26.6491 13.2139 26.1325 12.9999 25.5937 12.9999H24.375" stroke="white" stroke-width="1.6" stroke-linecap="round" stroke-linejoin="round"/>
<path d="M13 27.6249H26" stroke="white" stroke-width="1.6" stroke-linecap="round" stroke-linejoin="round"/>
<path d="M14.625 17.0624C14.625 18.3554 15.1386 19.5953 16.0528 20.5096C16.967 21.4238 18.207 21.9374 19.5 21.9374C20.7929 21.9374 22.0329 21.4238 22.9471 20.5096C23.8613 19.5953 24.3749 18.3554 24.3749 17.0624V12.1874C24.3749 11.972 24.2893 11.7653 24.137 11.6129C23.9846 11.4605 23.7779 11.3749 23.5624 11.3749H15.4375C15.222 11.3749 15.0153 11.4605 14.8629 11.6129C14.7106 11.7653 14.625 11.972 14.625 12.1874V17.0624Z" stroke="white" stroke-width="1.6" stroke-linecap="round" stroke-linejoin="round"/>
<path d="M14.6249 17.0624H13.4062C12.8675 17.0624 12.3508 16.8484 11.9699 16.4675C11.5889 16.0865 11.3749 15.5699 11.3749 15.0312C11.3749 14.4924 11.5889 13.9758 11.9699 13.5949C12.3508 13.2139 12.8675 12.9999 13.4062 12.9999H14.6249" stroke="white" stroke-width="1.6" stroke-linecap="round" stroke-linejoin="round"/>
</svg>
