<svg width="39" height="39" viewBox="0 0 39 39" fill="none" xmlns="http://www.w3.org/2000/svg">
<path d="M0 16.25C0 7.27536 7.27537 0 16.25 0H22.75C31.7246 0 39 7.27537 39 16.25V22.75C39 31.7246 31.7246 39 22.75 39H16.25C7.27536 39 0 31.7246 0 22.75V16.25Z" fill="white" fill-opacity="0.2"/>
<g clip-path="url(#clip0_17_34)">
<path d="M13 21.1249C12.8462 21.1255 12.6955 21.0824 12.5652 21.0006C12.435 20.9189 12.3307 20.8019 12.2643 20.6632C12.1979 20.5245 12.1723 20.3698 12.1903 20.2171C12.2084 20.0644 12.2694 19.92 12.3662 19.8006L20.41 11.5131C20.4703 11.4434 20.5525 11.3964 20.6431 11.3796C20.7338 11.3629 20.8274 11.3774 20.9086 11.4209C20.9899 11.4643 21.0539 11.5341 21.0903 11.6188C21.1267 11.7035 21.1332 11.798 21.1087 11.8868L19.5487 16.7781C19.5027 16.9012 19.4873 17.0336 19.5037 17.164C19.5201 17.2944 19.5679 17.4189 19.643 17.5267C19.7181 17.6346 19.8183 17.7226 19.9349 17.7833C20.0515 17.8439 20.181 17.8754 20.3125 17.8749H26C26.1537 17.8744 26.3045 17.9175 26.4347 17.9993C26.5649 18.081 26.6693 18.198 26.7356 18.3367C26.802 18.4754 26.8277 18.6301 26.8096 18.7828C26.7916 18.9355 26.7306 19.0799 26.6337 19.1993L18.59 27.4868C18.5296 27.5565 18.4474 27.6035 18.3568 27.6203C18.2662 27.637 18.1726 27.6225 18.0913 27.579C18.0101 27.5356 17.946 27.4658 17.9096 27.3811C17.8733 27.2964 17.8668 27.2019 17.8912 27.1131L19.4512 22.2218C19.4972 22.0987 19.5127 21.9663 19.4962 21.8359C19.4798 21.7055 19.432 21.581 19.3569 21.4732C19.2818 21.3653 19.1817 21.2773 19.0651 21.2166C18.9485 21.156 18.8189 21.1245 18.6875 21.1249H13Z" stroke="white" stroke-width="1.6" stroke-linecap="round" stroke-linejoin="round"/>
</g>
<defs>
<clipPath id="clip0_17_34">
<rect width="19.2" height="19.2" fill="white" transform="translate(9.74997 9.74997) scale(1.01562)"/>
</clipPath>
</defs>
</svg>
