<svg width="20" height="20" viewBox="0 0 20 20" fill="none" xmlns="http://www.w3.org/2000/svg">
<path d="M0 10C0 4.47717 4.47714 0 9.99996 0C15.5228 0 19.9999 4.47717 19.9999 10C19.9999 15.5228 15.5228 20 9.99996 20C4.47714 20 0 15.5228 0 10Z" fill="#FDC700"/>
<g clip-path="url(#clip0_17_217)">
<path d="M9.81747 6.36088C9.83546 6.32822 9.86188 6.30098 9.89398 6.28201C9.92608 6.26304 9.96269 6.25303 9.99997 6.25303C10.0373 6.25303 10.0739 6.26304 10.106 6.28201C10.1381 6.30098 10.1645 6.32822 10.1825 6.36088L11.4125 8.69587C11.4418 8.74994 11.4827 8.79684 11.5323 8.83321C11.582 8.86958 11.639 8.89452 11.6994 8.90623C11.7598 8.91794 11.822 8.91613 11.8816 8.90094C11.9412 8.88575 11.9967 8.85755 12.0441 8.81837L13.8262 7.29171C13.8604 7.26388 13.9026 7.24763 13.9466 7.24529C13.9906 7.24295 14.0343 7.25464 14.0712 7.27869C14.1082 7.30273 14.1366 7.33788 14.1523 7.37908C14.168 7.42028 14.1703 7.4654 14.1587 7.50796L12.9779 11.7771C12.9538 11.8645 12.9018 11.9416 12.83 11.9968C12.7581 12.052 12.6702 12.0822 12.5795 12.0829H7.42082C7.33012 12.0823 7.24211 12.0521 7.17015 11.9969C7.09818 11.9417 7.04619 11.8645 7.02207 11.7771L5.84166 7.50837C5.83009 7.46582 5.83233 7.4207 5.84805 7.3795C5.86376 7.3383 5.89215 7.30314 5.92911 7.2791C5.96608 7.25506 6.00972 7.24337 6.05375 7.24571C6.09779 7.24805 6.13995 7.2643 6.17415 7.29213L7.95581 8.81879C8.00323 8.85797 8.05873 8.88617 8.11834 8.90136C8.17795 8.91655 8.24018 8.91835 8.30056 8.90664C8.36095 8.89493 8.41799 8.87 8.4676 8.83363C8.51721 8.79726 8.55815 8.75035 8.58748 8.69629L9.81747 6.36088Z" stroke="#0F172B" stroke-width="0.8" stroke-linecap="round" stroke-linejoin="round"/>
<path d="M7.08329 13.75H12.9166" stroke="#0F172B" stroke-width="0.8" stroke-linecap="round" stroke-linejoin="round"/>
</g>
<defs>
<clipPath id="clip0_17_217">
<rect width="9.6" height="9.6" fill="white" transform="translate(4.99997 5.00003) scale(1.04166)"/>
</clipPath>
</defs>
</svg>
