<svg width="39" height="39" viewBox="0 0 39 39" fill="none" xmlns="http://www.w3.org/2000/svg">
<path d="M0 14.2188C0 6.36596 6.36596 0 14.2188 0H24.7813C32.6341 0 39.0001 6.36596 39.0001 14.2188V24.7812C39.0001 32.634 32.6341 38.9999 24.7813 38.9999H14.2188C6.36596 38.9999 0 32.634 0 24.7812V14.2188Z" fill="#DBEAFE"/>
<path d="M22.75 26.8124V25.1874C22.75 24.3254 22.4076 23.4988 21.7981 22.8893C21.1886 22.2798 20.362 21.9374 19.5 21.9374H14.625C13.7631 21.9374 12.9364 22.2798 12.3269 22.8893C11.7174 23.4988 11.375 24.3254 11.375 25.1874V26.8124" stroke="#155DFC" stroke-width="1.6" stroke-linecap="round" stroke-linejoin="round"/>
<path d="M22.7501 12.2913C23.447 12.472 24.0642 12.8789 24.5048 13.4483C24.9455 14.0177 25.1845 14.7173 25.1845 15.4373C25.1845 16.1572 24.9455 16.8568 24.5048 17.4262C24.0642 17.9956 23.447 18.4026 22.7501 18.5833" stroke="#155DFC" stroke-width="1.6" stroke-linecap="round" stroke-linejoin="round"/>
<path d="M27.625 26.8123V25.1873C27.6245 24.4672 27.3848 23.7676 26.9436 23.1985C26.5024 22.6294 25.8847 22.2229 25.1875 22.0429" stroke="#155DFC" stroke-width="1.6" stroke-linecap="round" stroke-linejoin="round"/>
<path d="M17.0626 18.6874C18.8575 18.6874 20.3126 17.2323 20.3126 15.4374C20.3126 13.6425 18.8575 12.1874 17.0626 12.1874C15.2676 12.1874 13.8126 13.6425 13.8126 15.4374C13.8126 17.2323 15.2676 18.6874 17.0626 18.6874Z" stroke="#155DFC" stroke-width="1.6" stroke-linecap="round" stroke-linejoin="round"/>
</svg>
