<svg width="32" height="32" viewBox="0 0 32 32" fill="none" xmlns="http://www.w3.org/2000/svg">
<path d="M0 14C0 6.26801 6.26801 0 14 0H18C25.732 0 32 6.26801 32 14V18C32 25.732 25.732 32 18 32H14C6.26801 32 0 25.732 0 18V14Z" fill="#F3E8FF"/>
<path d="M18.318 16.5934L19.328 22.2774C19.3393 22.3443 19.3299 22.4131 19.301 22.4745C19.2722 22.536 19.2253 22.5872 19.1666 22.6212C19.1079 22.6553 19.0402 22.6706 18.9725 22.6652C18.9048 22.6597 18.8405 22.6337 18.788 22.5907L16.4013 20.7994C16.2861 20.7133 16.1461 20.6668 16.0023 20.6668C15.8585 20.6668 15.7185 20.7133 15.6033 20.7994L13.2126 22.59C13.1602 22.633 13.0959 22.6589 13.0283 22.6644C12.9607 22.6698 12.8931 22.6546 12.8344 22.6206C12.7757 22.5866 12.7288 22.5356 12.6999 22.4742C12.671 22.4129 12.6615 22.3442 12.6726 22.2774L13.682 16.5934" stroke="#9810FA" stroke-width="1.33333" stroke-linecap="round" stroke-linejoin="round"/>
<path d="M16 17.3333C18.2091 17.3333 20 15.5425 20 13.3333C20 11.1242 18.2091 9.33334 16 9.33334C13.7909 9.33334 12 11.1242 12 13.3333C12 15.5425 13.7909 17.3333 16 17.3333Z" stroke="#9810FA" stroke-width="1.33333" stroke-linecap="round" stroke-linejoin="round"/>
</svg>
