<svg width="26" height="26" viewBox="0 0 26 26" fill="none" xmlns="http://www.w3.org/2000/svg">
<path d="M0 13C0 5.8203 5.8203 0 13 0C20.1797 0 26 5.8203 26 13C26 20.1797 20.1797 26 13 26C5.8203 26 0 20.1797 0 13Z" fill="#FEF9C2"/>
<g clip-path="url(#clip0_17_133)">
<path d="M12.7628 8.26906C12.7862 8.2266 12.8205 8.19118 12.8622 8.16652C12.904 8.14186 12.9515 8.12885 13 8.12885C13.0485 8.12885 13.0961 8.14186 13.1378 8.16652C13.1795 8.19118 13.2139 8.2266 13.2373 8.26906L14.8363 11.3046C14.8744 11.3748 14.9276 11.4358 14.9921 11.4831C15.0566 11.5304 15.1308 11.5628 15.2093 11.578C15.2878 11.5932 15.3687 11.5909 15.4462 11.5712C15.5236 11.5514 15.5958 11.5147 15.6574 11.4638L17.9741 9.47914C18.0186 9.44297 18.0734 9.42184 18.1307 9.4188C18.1879 9.41576 18.2446 9.43096 18.2927 9.46221C18.3408 9.49347 18.3777 9.53916 18.3981 9.59272C18.4185 9.64628 18.4214 9.70495 18.4064 9.76027L16.8713 15.3102C16.84 15.4238 16.7725 15.524 16.679 15.5958C16.5856 15.6675 16.4713 15.7068 16.3535 15.7078H9.64711C9.5292 15.7069 9.41479 15.6677 9.32123 15.5959C9.22768 15.5242 9.16009 15.4238 9.12873 15.3102L7.59419 9.76081C7.57916 9.70549 7.58207 9.64683 7.6025 9.59327C7.62293 9.53971 7.65983 9.49401 7.70789 9.46275C7.75594 9.4315 7.81267 9.4163 7.86992 9.41934C7.92716 9.42238 7.98197 9.44351 8.02644 9.47968L10.3426 11.4644C10.4042 11.5153 10.4764 11.5519 10.5539 11.5717C10.6314 11.5914 10.7123 11.5938 10.7908 11.5786C10.8693 11.5633 10.9434 11.5309 11.0079 11.4836C11.0724 11.4364 11.1256 11.3754 11.1638 11.3051L12.7628 8.26906Z" stroke="#D08700" stroke-width="1.06667" stroke-linecap="round" stroke-linejoin="round"/>
<path d="M9.20833 17.875H16.7917" stroke="#D08700" stroke-width="1.06667" stroke-linecap="round" stroke-linejoin="round"/>
</g>
<defs>
<clipPath id="clip0_17_133">
<rect width="12.8" height="12.8" fill="white" transform="translate(6.50003 6.50003) scale(1.01563)"/>
</clipPath>
</defs>
</svg>
