<svg width="52" height="52" viewBox="0 0 52 52" fill="none" xmlns="http://www.w3.org/2000/svg">
<path d="M0 26C0 11.6406 11.6406 0 26 0C40.3594 0 52.0001 11.6406 52.0001 26C52.0001 40.3594 40.3594 52.0001 26 52.0001C11.6406 52.0001 0 40.3594 0 26Z" fill="white" fill-opacity="0.3"/>
<path d="M19.5 22.7501H17.875C17.1567 22.7501 16.4679 22.4648 15.96 21.9569C15.452 21.449 15.1667 20.7601 15.1667 20.0418C15.1667 19.3235 15.452 18.6346 15.96 18.1267C16.4679 17.6188 17.1567 17.3335 17.875 17.3335H19.5" stroke="white" stroke-width="2.13334"/>
<path d="M32.5002 22.7501H34.1252C34.8435 22.7501 35.5323 22.4648 36.0402 21.9569C36.5482 21.449 36.8335 20.7601 36.8335 20.0418C36.8335 19.3235 36.5482 18.6346 36.0402 18.1267C35.5323 17.6188 34.8435 17.3335 34.1252 17.3335H32.5002" stroke="white" stroke-width="2.13334"/>
<path d="M17.3333 36.8334H34.6667" stroke="white" stroke-width="2.13334"/>
<path d="M23.8334 28.8817V31.4167C23.8334 32.0126 23.3243 32.4784 22.7826 32.7276C21.5042 33.3126 20.5834 34.9268 20.5834 36.8334" stroke="white" stroke-width="2.13334"/>
<path d="M28.1668 28.8817V31.4167C28.1668 32.0126 28.6759 32.4784 29.2176 32.7276C30.4959 33.3126 31.4168 34.9268 31.4168 36.8334" stroke="white" stroke-width="2.13334"/>
<path d="M32.5001 15.1667H19.5001V22.75C19.5001 24.474 20.1849 26.1273 21.4039 27.3463C22.6229 28.5652 24.2762 29.2501 26.0001 29.2501C27.724 29.2501 29.3773 28.5652 30.5963 27.3463C31.8153 26.1273 32.5001 24.474 32.5001 22.75V15.1667Z" stroke="white" stroke-width="2.13334"/>
</svg>
