<svg width="55" height="16" viewBox="0 0 55 16" fill="none" xmlns="http://www.w3.org/2000/svg">
<g clip-path="url(#clip0_17_185)">
<path d="M1.33331 6.33332C1.33333 5.59145 1.55838 4.86704 1.97874 4.25576C2.39909 3.64448 2.99499 3.17509 3.68772 2.90959C4.38045 2.64408 5.13742 2.59495 5.85865 2.76868C6.57989 2.94242 7.23146 3.33084 7.72731 3.88265C7.76224 3.92 7.80446 3.94977 7.85136 3.97012C7.89827 3.99047 7.94885 4.00098 7.99998 4.00098C8.05111 4.00098 8.10169 3.99047 8.1486 3.97012C8.1955 3.94977 8.23772 3.92 8.27265 3.88265C8.76694 3.32725 9.41866 2.93556 10.1411 2.75972C10.8635 2.58388 11.6223 2.63222 12.3166 2.89831C13.0108 3.1644 13.6076 3.63562 14.0274 4.24925C14.4472 4.86289 14.6702 5.58983 14.6666 6.33332C14.6666 7.85999 13.6666 8.99999 12.6666 9.99999L9.00531 13.542C8.88109 13.6847 8.72793 13.7993 8.55601 13.8782C8.38409 13.9571 8.19734 13.9986 8.00817 13.9997C7.819 14.0009 7.63174 13.9619 7.45884 13.8851C7.28593 13.8084 7.13133 13.6957 7.00531 13.5547L3.33331 9.99999C2.33331 8.99999 1.33331 7.86665 1.33331 6.33332Z" fill="#FB2C36" stroke="#FB2C36" stroke-width="1.33333" stroke-linecap="round" stroke-linejoin="round"/>
</g>
<path d="M20.5333 6.33332C20.5333 5.59145 20.7584 4.86704 21.1787 4.25576C21.5991 3.64448 22.195 3.17509 22.8877 2.90959C23.5805 2.64408 24.3374 2.59495 25.0587 2.76868C25.7799 2.94242 26.4315 3.33084 26.9273 3.88265C26.9622 3.92 27.0045 3.94977 27.0514 3.97012C27.0983 3.99047 27.1489 4.00098 27.2 4.00098C27.2511 4.00098 27.3017 3.99047 27.3486 3.97012C27.3955 3.94977 27.4377 3.92 27.4727 3.88265C27.967 3.32725 28.6187 2.93556 29.3411 2.75972C30.0635 2.58388 30.8223 2.63222 31.5166 2.89831C32.2108 3.1644 32.8076 3.63562 33.2274 4.24925C33.6472 4.86289 33.8702 5.58983 33.8667 6.33332C33.8667 7.85999 32.8667 8.99999 31.8667 9.99999L28.2053 13.542C28.0811 13.6847 27.9279 13.7993 27.756 13.8782C27.5841 13.9571 27.3974 13.9986 27.2082 13.9997C27.019 14.0009 26.8318 13.9619 26.6588 13.8851C26.4859 13.8084 26.3313 13.6957 26.2053 13.5547L22.5333 9.99999C21.5333 8.99999 20.5333 7.86665 20.5333 6.33332Z" fill="#FB2C36" stroke="#FB2C36" stroke-width="1.33333" stroke-linecap="round" stroke-linejoin="round"/>
<g clip-path="url(#clip1_17_185)">
<path d="M39.7333 6.33332C39.7334 5.59145 39.9584 4.86704 40.3788 4.25576C40.7991 3.64448 41.395 3.17509 42.0877 2.90959C42.7805 2.64408 43.5374 2.59495 44.2587 2.76868C44.9799 2.94242 45.6315 3.33084 46.1273 3.88265C46.1623 3.92 46.2045 3.94977 46.2514 3.97012C46.2983 3.99047 46.3489 4.00098 46.4 4.00098C46.4511 4.00098 46.5017 3.99047 46.5486 3.97012C46.5955 3.94977 46.6377 3.92 46.6727 3.88265C47.167 3.32725 47.8187 2.93556 48.5411 2.75972C49.2635 2.58388 50.0223 2.63222 50.7166 2.89831C51.4108 3.1644 52.0076 3.63562 52.4274 4.24925C52.8472 4.86289 53.0702 5.58983 53.0667 6.33332C53.0667 7.85999 52.0667 8.99999 51.0667 9.99999L47.4053 13.542C47.2811 13.6847 47.128 13.7993 46.956 13.8782C46.7841 13.9571 46.5974 13.9986 46.4082 13.9997C46.219 14.0009 46.0318 13.9619 45.8589 13.8851C45.686 13.8084 45.5314 13.6957 45.4053 13.5547L41.7333 9.99999C40.7333 8.99999 39.7333 7.86665 39.7333 6.33332Z" fill="#FB2C36" stroke="#FB2C36" stroke-width="1.33333" stroke-linecap="round" stroke-linejoin="round"/>
</g>
<defs>
<clipPath id="clip0_17_185">
<rect width="16" height="16" fill="white"/>
</clipPath>
<clipPath id="clip1_17_185">
<rect width="16" height="16" fill="white" transform="translate(38.4)"/>
</clipPath>
</defs>
</svg>
