<svg width="10" height="10" viewBox="0 0 10 10" fill="none" xmlns="http://www.w3.org/2000/svg">
<path d="M4.81754 1.36086C4.83552 1.32819 4.86194 1.30095 4.89404 1.28198C4.92615 1.26301 4.96275 1.253 5.00004 1.253C5.03733 1.253 5.07393 1.26301 5.10603 1.28198C5.13813 1.30095 5.16455 1.32819 5.18254 1.36086L6.41254 3.69586C6.44187 3.74993 6.48281 3.79683 6.53242 3.8332C6.58203 3.86957 6.63907 3.89451 6.69946 3.90622C6.75985 3.91793 6.82208 3.91613 6.88168 3.90094C6.94129 3.88575 6.99679 3.85755 7.04421 3.81836L8.8263 2.29169C8.86051 2.26387 8.90266 2.24762 8.9467 2.24528C8.99073 2.24294 9.03437 2.25463 9.07134 2.27867C9.10831 2.30271 9.13669 2.33786 9.15241 2.37906C9.16812 2.42026 9.17036 2.46539 9.1588 2.50794L7.97796 6.77712C7.95386 6.86448 7.90193 6.9416 7.83005 6.99679C7.75817 7.05198 7.67025 7.08223 7.57963 7.08296H2.42086C2.33017 7.08232 2.24216 7.05211 2.17019 6.99692C2.09823 6.94172 2.04624 6.86455 2.02211 6.77712L0.841693 2.50836C0.83013 2.46581 0.832369 2.42068 0.848085 2.37948C0.863802 2.33828 0.892186 2.30313 0.929152 2.27909C0.966118 2.25504 1.00976 2.24335 1.05379 2.24569C1.09783 2.24803 1.13998 2.26428 1.17419 2.29211L2.95587 3.81878C3.00328 3.85796 3.05879 3.88616 3.11839 3.90135C3.178 3.91654 3.24023 3.91835 3.30062 3.90664C3.361 3.89493 3.41805 3.86999 3.46766 3.83362C3.51726 3.79725 3.5582 3.75035 3.58753 3.69628L4.81754 1.36086Z" stroke="#FFDF20" stroke-width="0.8" stroke-linecap="round" stroke-linejoin="round"/>
<path d="M2.08334 8.75005H7.91669" stroke="#FFDF20" stroke-width="0.8" stroke-linecap="round" stroke-linejoin="round"/>
</svg>
