<svg width="13" height="13" viewBox="0 0 13 13" fill="none" xmlns="http://www.w3.org/2000/svg">
<path d="M11.3749 6.49998C11.3749 7.46416 11.089 8.40668 10.5533 9.20837C10.0177 10.0101 9.25631 10.6349 8.36552 11.0039C7.47474 11.3728 6.49454 11.4694 5.54889 11.2813C4.60323 11.0932 3.7346 10.6289 3.05282 9.94711C2.37104 9.26533 1.90674 8.39669 1.71864 7.45104C1.53054 6.50538 1.62708 5.52519 1.99606 4.6344C2.36503 3.74362 2.98987 2.98225 3.79156 2.44658C4.59324 1.91091 5.53577 1.625 6.49995 1.625C7.86494 1.625 9.17035 2.16666 10.1508 3.10916L11.3749 4.33332" stroke="#F54900" stroke-width="1.06667" stroke-linecap="round" stroke-linejoin="round"/>
<path d="M11.3749 1.625V4.33332H8.66663" stroke="#F54900" stroke-width="1.06667" stroke-linecap="round" stroke-linejoin="round"/>
</svg>
