<svg width="16" height="16" viewBox="0 0 16 16" fill="none" xmlns="http://www.w3.org/2000/svg">
<path d="M10.6667 14V12.6667C10.6667 11.9594 10.3858 11.2811 9.88566 10.781C9.38556 10.2809 8.70728 10 8.00004 10H4.00004C3.29279 10 2.61452 10.2809 2.11442 10.781C1.61432 11.2811 1.33337 11.9594 1.33337 12.6667V14" stroke="white" stroke-width="1.33334" stroke-linecap="round" stroke-linejoin="round"/>
<path d="M10.6667 2.08537C11.2386 2.23362 11.745 2.56755 12.1065 3.03474C12.468 3.50194 12.6642 4.07596 12.6642 4.6667C12.6642 5.25744 12.468 5.83146 12.1065 6.29866C11.745 6.76586 11.2386 7.09979 10.6667 7.24804" stroke="white" stroke-width="1.33334" stroke-linecap="round" stroke-linejoin="round"/>
<path d="M14.6667 14V12.6667C14.6663 12.0758 14.4696 11.5018 14.1076 11.0349C13.7456 10.5679 13.2388 10.2344 12.6667 10.0867" stroke="white" stroke-width="1.33334" stroke-linecap="round" stroke-linejoin="round"/>
<path d="M6.00003 7.33333C7.47279 7.33333 8.6667 6.13942 8.6667 4.66666C8.6667 3.1939 7.47279 2 6.00003 2C4.52727 2 3.33337 3.1939 3.33337 4.66666C3.33337 6.13942 4.52727 7.33333 6.00003 7.33333Z" stroke="white" stroke-width="1.33334" stroke-linecap="round" stroke-linejoin="round"/>
</svg>
