<svg width="32" height="32" viewBox="0 0 32 32" fill="none" xmlns="http://www.w3.org/2000/svg">
<path d="M0 16C0 7.16344 7.16344 0 16 0C24.8366 0 32 7.16344 32 16C32 24.8366 24.8366 32 16 32C7.16344 32 0 24.8366 0 16Z" fill="white" fill-opacity="0.2"/>
<path d="M20.6667 22V20.6667C20.6667 19.9594 20.3858 19.2811 19.8857 18.781C19.3856 18.281 18.7073 18 18 18H14C13.2928 18 12.6145 18.281 12.1144 18.781C11.6143 19.2811 11.3334 19.9594 11.3334 20.6667V22" stroke="white" stroke-width="1.33333" stroke-linecap="round" stroke-linejoin="round"/>
<path d="M16 15.3333C17.4728 15.3333 18.6667 14.1394 18.6667 12.6667C18.6667 11.1939 17.4728 10 16 10C14.5273 10 13.3334 11.1939 13.3334 12.6667C13.3334 14.1394 14.5273 15.3333 16 15.3333Z" stroke="white" stroke-width="1.33333" stroke-linecap="round" stroke-linejoin="round"/>
</svg>
