<svg width="39" height="39" viewBox="0 0 39 39" fill="none" xmlns="http://www.w3.org/2000/svg">
<path d="M0 14.2187C0 6.36593 6.36593 0 14.2187 0H24.7812C32.6339 0 38.9999 6.36593 38.9999 14.2187V24.7813C38.9999 32.6341 32.6339 39 24.7812 39H14.2187C6.36593 39 0 32.6341 0 24.7813V14.2187Z" fill="#DCFCE7"/>
<path d="M22.7499 26.8125V25.1875C22.7499 24.3256 22.4075 23.4989 21.798 22.8894C21.1885 22.2799 20.3619 21.9375 19.4999 21.9375H14.625C13.763 21.9375 12.9364 22.2799 12.3269 22.8894C11.7174 23.4989 11.375 24.3256 11.375 25.1875V26.8125" stroke="#00A63E" stroke-width="1.6" stroke-linecap="round" stroke-linejoin="round"/>
<path d="M22.75 12.2915C23.4469 12.4721 24.0641 12.8791 24.5047 13.4485C24.9453 14.0179 25.1844 14.7175 25.1844 15.4375C25.1844 16.1574 24.9453 16.857 24.5047 17.4264C24.0641 17.9958 23.4469 18.4028 22.75 18.5834" stroke="#00A63E" stroke-width="1.6" stroke-linecap="round" stroke-linejoin="round"/>
<path d="M27.6249 26.8124V25.1874C27.6243 24.4673 27.3847 23.7678 26.9435 23.1986C26.5023 22.6295 25.8846 22.223 25.1874 22.043" stroke="#00A63E" stroke-width="1.6" stroke-linecap="round" stroke-linejoin="round"/>
<path d="M17.0625 18.6875C18.8574 18.6875 20.3125 17.2325 20.3125 15.4376C20.3125 13.6426 18.8574 12.1876 17.0625 12.1876C15.2676 12.1876 13.8125 13.6426 13.8125 15.4376C13.8125 17.2325 15.2676 18.6875 17.0625 18.6875Z" stroke="#00A63E" stroke-width="1.6" stroke-linecap="round" stroke-linejoin="round"/>
</svg>
