<svg width="32" height="32" viewBox="0 0 32 32" fill="none" xmlns="http://www.w3.org/2000/svg">
<path d="M0 14C0 6.26801 6.26801 0 14 0H18C25.732 0 32 6.26801 32 14V18C32 25.732 25.732 32 18 32H14C6.26801 32 0 25.732 0 18V14Z" fill="#FFEDD4"/>
<path d="M16 10C16.4444 11.7778 17.3333 13.2222 18.6666 14.3333C20 15.4444 20.6666 16.6667 20.6666 18C20.6666 19.2377 20.175 20.4247 19.2998 21.2998C18.4246 22.175 17.2377 22.6667 16 22.6667C14.7623 22.6667 13.5753 22.175 12.7001 21.2998C11.825 20.4247 11.3333 19.2377 11.3333 18C11.3333 17.2788 11.5672 16.577 12 16C12 16.442 12.1756 16.866 12.4881 17.1785C12.8007 17.4911 13.2246 17.6667 13.6666 17.6667C14.1087 17.6667 14.5326 17.4911 14.8452 17.1785C15.1577 16.866 15.3333 16.442 15.3333 16C15.3333 14.6667 14.3333 14 14.3333 12.6667C14.3333 11.7778 14.8889 10.8889 16 10Z" stroke="#F54900" stroke-width="1.33333" stroke-linecap="round" stroke-linejoin="round"/>
</svg>
