<svg width="39" height="39" viewBox="0 0 39 39" fill="none" xmlns="http://www.w3.org/2000/svg">
<path d="M0 14.2187C0 6.36595 6.36595 0 14.2187 0H24.7813C32.6341 0 39 6.36595 39 14.2187V24.7811C39 32.6339 32.6341 38.9999 24.7813 38.9999H14.2187C6.36595 38.9999 0 32.6339 0 24.7811V14.2187Z" fill="white" fill-opacity="0.2"/>
<g clip-path="url(#clip0_17_706)">
<path d="M18.7013 12.0362C18.7361 11.8498 18.835 11.6814 18.9809 11.5603C19.1268 11.4391 19.3104 11.3728 19.5 11.3728C19.6896 11.3728 19.8733 11.4391 20.0191 11.5603C20.165 11.6814 20.2639 11.8498 20.2987 12.0362L21.1526 16.552C21.2133 16.8731 21.3693 17.1684 21.6003 17.3994C21.8314 17.6305 22.1267 17.7865 22.4478 17.8471L26.9636 18.7011C27.15 18.7359 27.3184 18.8348 27.4395 18.9807C27.5606 19.1265 27.6269 19.3102 27.6269 19.4998C27.6269 19.6894 27.5606 19.873 27.4395 20.0189C27.3184 20.1647 27.15 20.2636 26.9636 20.2985L22.4478 21.1524C22.1267 21.213 21.8314 21.3691 21.6003 21.6001C21.3693 21.8311 21.2133 22.1265 21.1526 22.4475L20.2987 26.9634C20.2639 27.1498 20.165 27.3181 20.0191 27.4392C19.8733 27.5604 19.6896 27.6267 19.5 27.6267C19.3104 27.6267 19.1268 27.5604 18.9809 27.4392C18.835 27.3181 18.7361 27.1498 18.7013 26.9634L17.8474 22.4475C17.7867 22.1265 17.6307 21.8311 17.3997 21.6001C17.1686 21.3691 16.8733 21.213 16.5523 21.1524L12.0364 20.2985C11.85 20.2636 11.6817 20.1647 11.5605 20.0189C11.4394 19.873 11.3731 19.6894 11.3731 19.4998C11.3731 19.3102 11.4394 19.1265 11.5605 18.9807C11.6817 18.8348 11.85 18.7359 12.0364 18.7011L16.5523 17.8471C16.8733 17.7865 17.1686 17.6305 17.3997 17.3994C17.6307 17.1684 17.7867 16.8731 17.8474 16.552L18.7013 12.0362Z" stroke="white" stroke-width="1.6" stroke-linecap="round" stroke-linejoin="round"/>
<path d="M26 11.3748V14.6248" stroke="white" stroke-width="1.6" stroke-linecap="round" stroke-linejoin="round"/>
<path d="M27.6249 12.9999H24.3749" stroke="white" stroke-width="1.6" stroke-linecap="round" stroke-linejoin="round"/>
<path d="M12.9999 27.6248C13.8974 27.6248 14.6249 26.8973 14.6249 25.9998C14.6249 25.1023 13.8974 24.3748 12.9999 24.3748C12.1025 24.3748 11.3749 25.1023 11.3749 25.9998C11.3749 26.8973 12.1025 27.6248 12.9999 27.6248Z" stroke="white" stroke-width="1.6" stroke-linecap="round" stroke-linejoin="round"/>
</g>
<defs>
<clipPath id="clip0_17_706">
<rect width="19.2" height="19.2" fill="white" transform="translate(9.74997 9.74985) scale(1.01562)"/>
</clipPath>
</defs>
</svg>
