<svg width="32" height="32" viewBox="0 0 32 32" fill="none" xmlns="http://www.w3.org/2000/svg">
<path d="M0 14C0 6.26801 6.26801 0 14 0H18C25.732 0 32 6.26801 32 14V18C32 25.732 25.732 32 18 32H14C6.26801 32 0 25.732 0 18V14Z" fill="#DBEAFE"/>
<path d="M14.6667 17.7733V18.8573C14.6642 19.0857 14.603 19.3096 14.4891 19.5076C14.3751 19.7056 14.2122 19.871 14.016 19.988C13.5994 20.2965 13.2606 20.6979 13.0263 21.1604C12.7921 21.6229 12.669 22.1336 12.6667 22.652" stroke="#155DFC" stroke-width="1.33333" stroke-linecap="round" stroke-linejoin="round"/>
<path d="M17.3333 17.7733V18.8573C17.3358 19.0857 17.397 19.3096 17.5109 19.5076C17.6249 19.7056 17.7878 19.871 17.984 19.988C18.4006 20.2965 18.7394 20.6979 18.9737 21.1604C19.2079 21.6229 19.331 22.1336 19.3333 22.652" stroke="#155DFC" stroke-width="1.33333" stroke-linecap="round" stroke-linejoin="round"/>
<path d="M20 14H21C21.442 14 21.866 13.8244 22.1785 13.5118C22.4911 13.1993 22.6667 12.7754 22.6667 12.3333C22.6667 11.8913 22.4911 11.4674 22.1785 11.1548C21.866 10.8423 21.442 10.6667 21 10.6667H20" stroke="#155DFC" stroke-width="1.33333" stroke-linecap="round" stroke-linejoin="round"/>
<path d="M10.6667 22.6667H21.3334" stroke="#155DFC" stroke-width="1.33333" stroke-linecap="round" stroke-linejoin="round"/>
<path d="M12 14C12 15.0609 12.4214 16.0783 13.1716 16.8284C13.9217 17.5786 14.9391 18 16 18C17.0609 18 18.0783 17.5786 18.8284 16.8284C19.5786 16.0783 20 15.0609 20 14V10C20 9.8232 19.9298 9.65363 19.8047 9.52861C19.6797 9.40358 19.5101 9.33334 19.3333 9.33334H12.6667C12.4899 9.33334 12.3203 9.40358 12.1953 9.52861C12.0702 9.65363 12 9.8232 12 10V14Z" stroke="#155DFC" stroke-width="1.33333" stroke-linecap="round" stroke-linejoin="round"/>
<path d="M12 14H11C10.558 14 10.134 13.8244 9.82147 13.5118C9.50891 13.1993 9.33331 12.7754 9.33331 12.3333C9.33331 11.8913 9.50891 11.4674 9.82147 11.1548C10.134 10.8423 10.558 10.6667 11 10.6667H12" stroke="#155DFC" stroke-width="1.33333" stroke-linecap="round" stroke-linejoin="round"/>
</svg>
