<svg width="45" height="45" viewBox="0 0 45 45" fill="none" xmlns="http://www.w3.org/2000/svg">
<path d="M0 16.0714C0 7.1954 7.19542 0 16.0714 0H28.9286C37.8046 0 45 7.19542 45 16.0714V28.9286C45 37.8046 37.8046 45 28.9286 45H16.0714C7.1954 45 0 37.8046 0 28.9286V16.0714Z" fill="white" fill-opacity="0.2"/>
<path d="M15.9374 15.9375C15.9373 15.6076 16.0242 15.2835 16.1895 14.998C16.3547 14.7124 16.5923 14.4755 16.8784 14.3112C17.1645 14.1468 17.4888 14.0609 17.8188 14.062C18.1487 14.0631 18.4724 14.1513 18.7574 14.3176L30.0046 20.8782C30.2884 21.0429 30.5241 21.2792 30.688 21.5635C30.8519 21.8478 30.9383 22.1701 30.9386 22.4983C30.9388 22.8265 30.853 23.149 30.6896 23.4335C30.5262 23.7181 30.2909 23.9549 30.0074 24.1201L18.7574 30.6826C18.4724 30.8488 18.1487 30.937 17.8188 30.9381C17.4888 30.9392 17.1645 30.8533 16.8784 30.6889C16.5923 30.5246 16.3547 30.2877 16.1895 30.0021C16.0242 29.7166 15.9373 29.3925 15.9374 29.0626V15.9375Z" stroke="white" stroke-width="1.86667" stroke-linecap="round" stroke-linejoin="round"/>
</svg>
