<svg width="326" height="26" viewBox="0 0 326 26" fill="none" xmlns="http://www.w3.org/2000/svg">
<path d="M130.453 2.45101C130.5 2.35646 130.573 2.27686 130.662 2.22121C130.752 2.16556 130.855 2.13607 130.961 2.13607C131.066 2.13607 131.17 2.16556 131.259 2.22121C131.349 2.27686 131.421 2.35646 131.468 2.45101L133.935 7.44807C134.098 7.77698 134.337 8.06153 134.634 8.27731C134.931 8.49309 135.276 8.63365 135.638 8.68693L141.156 9.49432C141.26 9.50946 141.358 9.55356 141.439 9.62162C141.52 9.68968 141.58 9.77898 141.613 9.87944C141.645 9.97989 141.649 10.0875 141.624 10.19C141.599 10.2926 141.545 10.386 141.47 10.4598L137.48 14.3451C137.217 14.6015 137.02 14.918 136.906 15.2674C136.792 15.6168 136.765 15.9886 136.827 16.3507L137.769 21.8401C137.788 21.9446 137.776 22.0522 137.737 22.1506C137.697 22.2489 137.63 22.3342 137.544 22.3965C137.458 22.4589 137.357 22.4959 137.251 22.5032C137.145 22.5106 137.039 22.4881 136.946 22.4382L132.014 19.8451C131.689 19.6745 131.327 19.5854 130.96 19.5854C130.593 19.5854 130.232 19.6745 129.907 19.8451L124.976 22.4382C124.882 22.4878 124.777 22.51 124.671 22.5025C124.565 22.495 124.464 22.458 124.378 22.3957C124.292 22.3334 124.226 22.2483 124.186 22.1501C124.147 22.0519 124.135 21.9445 124.153 21.8401L125.094 16.3518C125.157 15.9895 125.13 15.6174 125.016 15.2678C124.902 14.9182 124.705 14.6015 124.442 14.3451L120.452 10.4608C120.376 10.3872 120.322 10.2936 120.296 10.1907C120.27 10.0878 120.274 9.97984 120.307 9.87899C120.339 9.77815 120.4 9.68852 120.481 9.62032C120.562 9.55212 120.661 9.50809 120.766 9.49325L126.282 8.68693C126.645 8.63406 126.99 8.49368 127.288 8.27788C127.585 8.06207 127.825 7.7773 127.987 7.44807L130.453 2.45101Z" fill="#FDC700" stroke="#FDC700" stroke-width="2.13333" stroke-linecap="round" stroke-linejoin="round"/>
<path d="M162.493 2.45101C162.54 2.35646 162.612 2.27686 162.702 2.22121C162.791 2.16556 162.895 2.13607 163 2.13607C163.106 2.13607 163.209 2.16556 163.299 2.22121C163.388 2.27686 163.461 2.35646 163.507 2.45101L165.974 7.44807C166.137 7.77698 166.377 8.06153 166.673 8.27731C166.97 8.49309 167.315 8.63365 167.678 8.68693L173.195 9.49432C173.299 9.50946 173.398 9.55356 173.478 9.62162C173.559 9.68968 173.619 9.77898 173.652 9.87944C173.685 9.97989 173.689 10.0875 173.663 10.19C173.638 10.2926 173.585 10.386 173.509 10.4598L169.519 14.3451C169.256 14.6015 169.059 14.918 168.945 15.2674C168.832 15.6168 168.805 15.9886 168.866 16.3507L169.808 21.8401C169.827 21.9446 169.816 22.0522 169.776 22.1506C169.736 22.2489 169.669 22.3342 169.584 22.3965C169.498 22.4589 169.396 22.4959 169.29 22.5032C169.184 22.5106 169.079 22.4881 168.985 22.4382L164.053 19.8451C163.728 19.6745 163.367 19.5854 163 19.5854C162.632 19.5854 162.271 19.6745 161.946 19.8451L157.015 22.4382C156.921 22.4878 156.816 22.51 156.71 22.5025C156.604 22.495 156.503 22.458 156.417 22.3957C156.332 22.3334 156.265 22.2483 156.226 22.1501C156.186 22.0519 156.174 21.9445 156.193 21.8401L157.134 16.3518C157.196 15.9895 157.169 15.6174 157.055 15.2678C156.942 14.9182 156.745 14.6015 156.481 14.3451L152.491 10.4608C152.415 10.3872 152.361 10.2936 152.335 10.1907C152.31 10.0878 152.313 9.97984 152.346 9.87899C152.379 9.77815 152.439 9.68852 152.52 9.62032C152.601 9.55212 152.7 9.50809 152.805 9.49325L158.321 8.68693C158.685 8.63406 159.03 8.49368 159.327 8.27788C159.624 8.06207 159.864 7.7773 160.027 7.44807L162.493 2.45101Z" fill="#FDC700" stroke="#FDC700" stroke-width="2.13333" stroke-linecap="round" stroke-linejoin="round"/>
<path d="M194.532 2.45101C194.579 2.35646 194.651 2.27686 194.741 2.22121C194.83 2.16556 194.934 2.13607 195.039 2.13607C195.145 2.13607 195.248 2.16556 195.338 2.22121C195.428 2.27686 195.5 2.35646 195.547 2.45101L198.014 7.44807C198.176 7.77698 198.416 8.06153 198.713 8.27731C199.01 8.49309 199.354 8.63365 199.717 8.68693L205.234 9.49432C205.339 9.50946 205.437 9.55356 205.518 9.62162C205.599 9.68968 205.659 9.77898 205.691 9.87944C205.724 9.97989 205.728 10.0875 205.703 10.19C205.677 10.2926 205.624 10.386 205.548 10.4598L201.558 14.3451C201.295 14.6015 201.098 14.918 200.985 15.2674C200.871 15.6168 200.844 15.9886 200.906 16.3507L201.848 21.8401C201.866 21.9446 201.855 22.0522 201.815 22.1506C201.775 22.2489 201.709 22.3342 201.623 22.3965C201.537 22.4589 201.435 22.4959 201.33 22.5032C201.224 22.5106 201.118 22.4881 201.024 22.4382L196.092 19.8451C195.767 19.6745 195.406 19.5854 195.039 19.5854C194.672 19.5854 194.31 19.6745 193.985 19.8451L189.054 22.4382C188.961 22.4878 188.855 22.51 188.749 22.5025C188.644 22.495 188.542 22.458 188.457 22.3957C188.371 22.3334 188.305 22.2483 188.265 22.1501C188.225 22.0519 188.214 21.9445 188.232 21.8401L189.173 16.3518C189.235 15.9895 189.208 15.6174 189.095 15.2678C188.981 14.9182 188.784 14.6015 188.52 14.3451L184.53 10.4608C184.454 10.3872 184.4 10.2936 184.375 10.1907C184.349 10.0878 184.353 9.97984 184.385 9.87899C184.418 9.77815 184.478 9.68852 184.56 9.62032C184.641 9.55212 184.739 9.50809 184.844 9.49325L190.361 8.68693C190.724 8.63406 191.069 8.49368 191.366 8.27788C191.663 8.06207 191.903 7.7773 192.066 7.44807L194.532 2.45101Z" fill="#FDC700" stroke="#FDC700" stroke-width="2.13333" stroke-linecap="round" stroke-linejoin="round"/>
</svg>
