<svg width="32" height="32" viewBox="0 0 32 32" fill="none" xmlns="http://www.w3.org/2000/svg">
<path d="M0 14C0 6.26801 6.26801 0 14 0H18C25.732 0 32 6.26801 32 14V18C32 25.732 25.732 32 18 32H14C6.26801 32 0 25.732 0 18V14Z" fill="#DCFCE7"/>
<path d="M16 22.6667C19.6819 22.6667 22.6666 19.6819 22.6666 16C22.6666 12.3181 19.6819 9.33334 16 9.33334C12.3181 9.33334 9.33331 12.3181 9.33331 16C9.33331 19.6819 12.3181 22.6667 16 22.6667Z" stroke="#00A63E" stroke-width="1.33333" stroke-linecap="round" stroke-linejoin="round"/>
<path d="M16 20C18.2091 20 20 18.2091 20 16C20 13.7909 18.2091 12 16 12C13.7909 12 12 13.7909 12 16C12 18.2091 13.7909 20 16 20Z" stroke="#00A63E" stroke-width="1.33333" stroke-linecap="round" stroke-linejoin="round"/>
<path d="M16 17.3333C16.7364 17.3333 17.3334 16.7364 17.3334 16C17.3334 15.2636 16.7364 14.6667 16 14.6667C15.2636 14.6667 14.6667 15.2636 14.6667 16C14.6667 16.7364 15.2636 17.3333 16 17.3333Z" stroke="#00A63E" stroke-width="1.33333" stroke-linecap="round" stroke-linejoin="round"/>
</svg>
