<svg width="13" height="13" viewBox="0 0 13 13" fill="none" xmlns="http://www.w3.org/2000/svg">
<g clip-path="url(#clip0_17_376)">
<path d="M8.12502 11.3749V7.04163C8.12502 6.89797 8.06795 6.7602 7.96637 6.65862C7.86478 6.55704 7.72701 6.49997 7.58335 6.49997H5.4167C5.27304 6.49997 5.13526 6.55704 5.03368 6.65862C4.9321 6.7602 4.87503 6.89797 4.87503 7.04163V11.3749" stroke="white" stroke-width="1.06667" stroke-linecap="round" stroke-linejoin="round"/>
<path d="M1.62497 5.41664C1.62493 5.25905 1.65927 5.10335 1.7256 4.9604C1.79193 4.81745 1.88865 4.6907 2.00901 4.58897L5.80066 1.33899C5.99619 1.17373 6.24393 1.08306 6.49995 1.08306C6.75596 1.08306 7.0037 1.17373 7.19923 1.33899L10.9909 4.58897C11.1112 4.6907 11.208 4.81745 11.2743 4.9604C11.3406 5.10335 11.375 5.25905 11.3749 5.41664V10.2916C11.3749 10.5789 11.2608 10.8545 11.0576 11.0576C10.8545 11.2608 10.5789 11.3749 10.2916 11.3749H2.7083C2.42098 11.3749 2.14543 11.2608 1.94227 11.0576C1.73911 10.8545 1.62497 10.5789 1.62497 10.2916V5.41664Z" stroke="white" stroke-width="1.06667" stroke-linecap="round" stroke-linejoin="round"/>
</g>
<defs>
<clipPath id="clip0_17_376">
<rect width="12.8" height="12.8" fill="white" transform="scale(1.01562)"/>
</clipPath>
</defs>
</svg>
