<svg width="16" height="16" viewBox="0 0 16 16" fill="none" xmlns="http://www.w3.org/2000/svg">
<g clip-path="url(#clip0_17_181)">
<path d="M7.68335 1.53003C7.71257 1.471 7.7577 1.42132 7.81365 1.38658C7.86961 1.35184 7.93416 1.33344 8.00002 1.33344C8.06588 1.33344 8.13043 1.35184 8.18638 1.38658C8.24234 1.42132 8.28747 1.471 8.31669 1.53003L9.85669 4.64936C9.95814 4.85468 10.1079 5.0323 10.2931 5.167C10.4783 5.3017 10.6934 5.38944 10.92 5.4227L14.364 5.9267C14.4293 5.93615 14.4906 5.96368 14.541 6.00616C14.5914 6.04865 14.629 6.1044 14.6494 6.1671C14.6698 6.22981 14.6722 6.29697 14.6564 6.36099C14.6406 6.42501 14.6072 6.48333 14.56 6.52936L12.0694 8.9547C11.9051 9.11477 11.7822 9.31235 11.7112 9.53045C11.6403 9.74855 11.6234 9.98062 11.662 10.2067L12.25 13.6334C12.2615 13.6986 12.2545 13.7657 12.2297 13.8272C12.2049 13.8886 12.1633 13.9418 12.1097 13.9807C12.0561 14.0196 11.9927 14.0427 11.9266 14.0473C11.8605 14.0519 11.7945 14.0378 11.736 14.0067L8.65735 12.388C8.4545 12.2815 8.22881 12.2259 7.99969 12.2259C7.77057 12.2259 7.54487 12.2815 7.34202 12.388L4.26402 14.0067C4.20557 14.0376 4.13962 14.0516 4.07365 14.0469C4.00769 14.0422 3.94437 14.0191 3.89088 13.9802C3.8374 13.9413 3.79591 13.8882 3.77112 13.8268C3.74634 13.7655 3.73926 13.6985 3.75069 13.6334L4.33802 10.2074C4.37682 9.98119 4.36001 9.74896 4.28904 9.53073C4.21808 9.31249 4.09509 9.1148 3.93069 8.9547L1.44002 6.53003C1.39242 6.48405 1.35868 6.42563 1.34266 6.36141C1.32664 6.2972 1.32898 6.22978 1.34941 6.16682C1.36983 6.10387 1.40753 6.04793 1.4582 6.00535C1.50888 5.96278 1.57049 5.9353 1.63602 5.92603L5.07935 5.4227C5.30619 5.3897 5.52161 5.30207 5.70708 5.16736C5.89254 5.03264 6.04249 4.85488 6.14402 4.64936L7.68335 1.53003Z" fill="#FFDF20" stroke="#FFDF20" stroke-width="1.33333" stroke-linecap="round" stroke-linejoin="round"/>
</g>
<defs>
<clipPath id="clip0_17_181">
<rect width="16" height="16" fill="white"/>
</clipPath>
</defs>
</svg>
